<?xml version="1.0" standalone="no"?>
<!DOCTYPE svg PUBLIC "-//W3C//DTD SVG 20010904//EN" "http://www.w3.org/TR/2001/REC-SVG-20010904/DTD/svg10.dtd">
<svg version="1.0" xmlns="http://www.w3.org/2000/svg" width="50.000000pt" height="50.000000pt"
   viewBox="0 0 300.000000 300.000000" preserveAspectRatio="xMidYMid meet">
   <metadata>
      Created by potrace 1.10, written by Peter Selinger 2001-2011
   </metadata>
   <g transform="translate(0.000000,300.000000) scale(0.100000,-0.100000)" fill="white" stroke="none">
      <path d="M484 2760 c-42 -17 -64 -58 -64 -121 0 -54 -2 -59 -25 -65 -29 -7
-65 -48 -65 -74 0 -14 -10 -17 -66 -16 -62 1 -67 -1 -95 -32 l-29 -32 0 -310
0 -310 29 -32 c52 -59 137 -33 157 47 9 35 -25 88 -61 99 l-30 9 0 233 0 234
233 0 232 0 0 66 c0 59 -3 68 -29 95 -16 16 -37 29 -45 29 -13 0 -16 12 -16
55 0 66 -18 106 -55 123 -30 14 -42 14 -71 2z m38 -148 l2 -117 5 112 c5 93 8
111 20 104 8 -5 18 -37 23 -73 6 -47 14 -68 30 -81 68 -53 69 -55 59 -134 -1
-9 -20 -13 -61 -13 -48 0 -62 4 -67 17 -6 15 -7 15 -13 -2 -6 -17 -16 -19 -94
-16 -48 1 -101 7 -117 11 -36 11 -85 -5 -99 -30 -6 -11 -10 -113 -10 -237 0
-238 1 -238 62 -276 41 -25 46 -56 14 -84 -33 -28 -47 -29 -77 -4 l-24 19 -1
273 c-1 151 2 291 7 311 11 45 32 58 93 58 36 0 50 6 75 31 17 17 31 35 31 40
0 4 13 15 29 24 34 17 47 49 50 126 1 22 40 71 52 64 5 -4 10 -59 11 -123z" />
      <path d="M985 2708 c-46 -26 -44 19 -45 -1210 l0 -1166 31 -26 31 -26 694 0
694 0 39 25 c22 13 52 41 68 61 l28 37 3 354 c2 211 -1 353 -6 353 -18 0 -22
-65 -22 -374 -1 -343 -2 -348 -65 -398 l-29 -23 -593 -5 c-588 -5 -593 -5
-594 15 -1 17 -2 18 -6 2 -4 -16 -16 -18 -100 -16 -81 1 -98 4 -119 23 l-24
21 -1 385 -1 385 876 2 876 3 0 -345 c0 -371 -2 -389 -53 -443 -36 -39 -57
-46 -157 -53 -89 -6 -87 -7 40 -5 156 1 181 11 231 85 l29 44 0 1087 0 1087
-29 44 c-50 74 -75 84 -231 85 -127 2 -129 1 -40 -5 100 -7 121 -14 157 -53
51 -54 53 -72 53 -443 l0 -345 -876 2 -876 3 1 385 1 385 26 23 c22 19 36 22
113 22 54 0 91 -4 99 -12 9 -9 12 -9 12 3 0 12 79 13 587 9 463 -4 594 -8 614
-18 14 -8 38 -32 52 -55 l27 -41 1 -286 c0 -157 0 -303 -1 -325 0 -23 6 -49
14 -60 15 -18 16 13 13 336 l-2 356 -28 37 c-16 20 -46 48 -68 61 l-39 25
-692 0 c-502 -1 -699 -4 -713 -12z m1782 -129 c4 -13 7 -150 9 -304 1 -154 3
-307 5 -340 4 -58 3 -60 -21 -60 -18 0 -24 4 -20 15 3 8 5 176 5 372 0 328 4
384 22 317z m-237 -746 c1 -25 2 -26 13 -12 9 12 35 18 97 22 47 3 96 7 110 9
l25 3 2 -346 c2 -304 1 -348 -13 -360 -12 -10 -20 -10 -35 -1 -10 7 -54 12
-99 12 -94 0 -88 -8 -93 140 -3 85 -3 81 -5 -33 l-2 -127 -777 2 -778 3 -3
345 c-1 190 0 351 3 357 3 10 167 13 780 13 l775 0 0 -27z m251 -803 c-2 -52
-4 -210 -5 -350 -1 -209 -4 -259 -16 -276 -13 -19 -15 15 -12 327 2 222 -1
355 -7 367 -12 23 -4 34 24 30 19 -3 20 -8 16 -98z" />
      <path d="M2534 1600 c0 -113 2 -159 3 -102 2 56 2 148 0 205 -1 56 -3 10 -3
-103z" />
      <path d="M681 2358 c-12 -32 -10 -1112 2 -1124 4 -5 12 -2 17 6 13 20 13 1110
0 1130 -7 11 -11 9 -19 -12z" />
      <path d="M332 2129 c2 -185 6 -243 16 -247 10 -3 12 46 10 239 -2 185 -6 243
-16 247 -10 3 -12 -46 -10 -239z" />
      <path d="M337 1763 c-11 -10 -8 -533 2 -533 18 0 21 38 21 286 0 232 -3 267
-23 247z" />
      <path d="M330 843 l0 -376 68 -105 c76 -118 101 -140 136 -124 13 6 56 59 95
118 l71 108 0 378 0 378 -185 0 -185 0 0 -377z m191 334 c0 -15 2 -17 6 -7 9
23 24 29 75 28 37 0 51 -4 58 -19 11 -20 14 -625 3 -666 -5 -21 -11 -23 -64
-23 -52 0 -61 3 -69 23 -8 21 -9 21 -9 -5 -1 -27 -2 -28 -62 -28 -105 0 -98
-28 -98 346 0 180 2 337 5 350 5 21 12 23 72 26 80 4 82 3 83 -25z m137 -734
c-34 -38 -98 -135 -98 -150 0 -9 -15 -13 -45 -13 -34 0 -45 4 -45 16 0 19 -51
97 -93 142 l-31 32 169 0 169 0 -26 -27z" />
      <path d="M524 865 c0 -154 2 -216 3 -137 2 79 2 205 0 280 -1 75 -3 11 -3
-143z" />
   </g>
   <g transform="translate(0.000000,300.000000) scale(0.100000,-0.100000)" fill="white" stroke="none">
      <path d="M467 2749 c-28 -16 -47 -64 -47 -118 0 -47 -2 -51 -35 -67 -23 -11
-39 -27 -47 -50 -12 -33 -13 -34 -71 -34 -125 0 -127 -6 -127 -370 0 -240 3
-296 15 -320 38 -73 133 -67 165 11 12 27 11 36 -5 65 -11 21 -31 38 -52 46
l-33 12 0 233 0 233 235 0 235 0 0 64 c0 71 -20 109 -65 120 -23 6 -25 11 -25
65 0 49 -4 65 -26 90 -20 24 -34 31 -62 31 -21 0 -45 -5 -55 -11z" />
      <path d="M1005 2711 c-11 -5 -29 -19 -40 -31 -20 -22 -20 -36 -20 -1181 l0
-1159 28 -27 c26 -27 33 -28 137 -31 l110 -4 0 421 0 421 608 0 c334 0 671 3
750 7 l142 6 0 -359 0 -360 -29 -47 c-17 -26 -46 -55 -68 -66 -47 -25 -20 -28
54 -6 60 18 107 65 123 124 7 27 10 378 8 1104 l-3 1065 -30 44 c-34 49 -79
74 -145 83 l-45 6 30 -17 c45 -25 65 -45 86 -86 18 -34 19 -64 19 -394 l0
-357 -142 6 c-79 4 -416 7 -750 7 l-608 0 0 420 0 420 -97 -1 c-54 0 -107 -4
-118 -8z" />
      <path d="M330 845 l0 -375 185 0 185 0 0 375 0 375 -185 0 -185 0 0 -375z" />
      <path d="M460 285 c0 -4 5 -15 10 -26 19 -34 100 -21 100 16 0 7 -21 13 -55
14 -30 1 -55 -1 -55 -4z" />
   </g>
</svg>